<?xml version="1.0" encoding="utf-8"?>
<!-- Generator: Adobe Illustrator 21.0.0, SVG Export Plug-In . SVG Version: 6.00 Build 0)  -->
<svg version="1.1" id="Layer_1" xmlns="http://www.w3.org/2000/svg" xmlns:xlink="http://www.w3.org/1999/xlink" x="0px" y="0px"
	 viewBox="0 0 235.2 134.1" style="enable-background:new 0 0 235.2 134.1;" xml:space="preserve">
<path d="M116.3,39.4L116.3,39.4l-0.2,0.2l0.3,1.6C116.3,40.6,116.3,40,116.3,39.4z"/>
<path d="M201.6,22.8c8.8-5.4,18.4-9.1,28.6-10.9c1.1-0.2,2.3-1.4,2.5-2.5c1-5.1-3.3-7.6-7.8-8c-5.8-0.5-11.7-0.3-17.5,0.1
	c-11.7,0.8-23.4,2.9-34.6,6.3c-17.8,5.5-34.5,14.1-49.2,25.5c0-1.4,0.1-2.9,0.1-4.3c0.3-5.9,2.8-13.5-5.3-14.4
	c-7.5-0.8-15.2-0.8-22.7-0.6c-14.8,0.5-29.7,2.5-44.1,6.1C35,24.1,19,30.3,4.1,38.2c-2.6,1.4-2.1,5.2,0.5,6.3c1.4,0.6,3.5,0.2,5,0.2
	c19.2,0.3,37.9,4.7,55.4,13c7.8,3.7,34.9,14.8,27.5,27.4c-1,1.7-2.5,3.1-4.3,4c-15.8,8.3-34,12-51.8,10.7c-2-0.2-2.8,2.6-1,3.6
	c1,0.6,2,1.1,3,1.6c24.9,12.7,51.4,20.4,78.7,25.7c3.5,0.7,20,5.6,19.8-1.7c0.1-0.7-0.9-6.6-1.6-8.8c0-0.1,0-0.1,0-0.2
	c-0.5-2.9-1-5.8-1.5-8.7c9.7,6.4,19.6,12.2,30.1,17.1c1.5,0.7,3.5,0.3,4.6-0.8c0.2-0.1,0.5-0.2,0.7-0.4c12-7.7,21.9-17.9,31.2-28.6
	c10.5-12,20.7-24.1,31.1-36.1c2.6-3-0.6-7.7-4.3-5.6c-19,10.9-40.5,16.4-62.2,16.3c0.6-2.5,1.3-5.1,2.2-7.6
	C173.1,47.8,185.7,32.6,201.6,22.8z M43.2,42.1c-5-1.3-10.1-2.4-15.2-3.2c-0.2-2-0.2-1.7-0.5-3.7C47.1,27.4,68,22.6,89.1,21.3
	c6.9-0.4,13.9-0.5,20.8-0.2c1.5,0.1,3,0.1,4.4,0.2c0.6,0,1.6,0.2,2.3,0.2c-0.2,1.4-0.4,3.8-0.4,6c-0.1,2.2,0,4.2,0,4.7
	c0,2.3,0,4.7,0.1,7c0,0.1,0,0.1,0,0.2c0,0.6,0.1,1.2,0.1,1.8c0,0.2,0,0.3,0,0.5c0.6,11.9,2.6,23.8,4.4,35.5
	c1.1,7.3,2.1,14.4,3.2,21.4c-0.9-1.3-1.9-2.6-2.8-3.9c-6.3-8.5-13.6-16.3-21.7-23.2C83.3,57.9,63.9,47.7,43.2,42.1z M126.4,119.9
	c-1.7,2.6-5.6,2.8-8.3,2.6c-7.9-0.6-15.7-2.3-23.4-4.1c-0.7-0.2-1.5-0.3-2.2-0.5c-8.8-2-17.5-4.4-25.9-7.4c-2.4-0.8-5.2-1.5-6.9-3.5
	c-0.2-0.3-0.4-0.6-0.5-1c-0.1-0.7,0.4-1.3,0.9-1.6c0.6-0.3,1.3-0.4,1.9-0.5c9-1.3,17.9-3.4,26.1-7.5c4.2-2.1,7.7-4.8,11.5-7.5
	c4.6-3.3,8.2,0.8,10.8,4.4c3.5,4.8,7.3,9.2,11.1,13.8C124.1,110,129.2,115.6,126.4,119.9z M215.1,70.7c-6.3,7.3-12.6,14.7-18.9,21.9
	c-8.7,10-17.8,19.7-28.8,27.2c-4.4-12.7-5.7-26.2-3.8-39.5C181.2,80.6,198.8,77.3,215.1,70.7z M157.7,72.9l-1.3,7.1
	c-0.5,3.4-0.8,6.9-0.8,10.4c-0.2,9.4,1,18.7,3.7,27.7c-9.4-5-18.4-10.5-27.2-16.5c0,0,0-0.1,0-0.2c-1.3-7.7-2.6-15.4-3.8-23
	c-1.8-11.8-3.9-23.8-4.5-35.8c0-0.1,0-0.2,0-0.2c13.2-11.1,28.4-19.8,44.7-25.6c9.1-3.2,18.6-5.6,28.2-7c5.1-0.7,10.2-1.2,15.3-1.3
	c1.3,0,2.5-0.1,3.8-0.1c-14.5,5-27.7,13.6-37.9,25C167.8,44.6,160.9,58.3,157.7,72.9z"/>
</svg>
